PathFileType	4	(X/Y/Z)	Patient4_TMGait_0pt2_02_left_13.trc.trc
DataRate	CameraRate	NumFrames	NumMarkers	Units	OrigDataRate	OrigDataStartFrame	OrigNumFrames
44.871794871795	44.871794871795	4	33	mm	44.871794871795	36	       141
Frame#	Time	R.Midfoot.Superior			Sacral			L.Shoulder			Chest			R.Shoulder			Neck			R.ASIS			L.ASIS			R.Thigh.Superior			R.Thigh.Lateral			R.Thigh.Inferior			R.Patella			L.Thigh.Superior			L.Thigh.Lateral			L.Thigh.Inferior			L.Patella			L.Shank.Superior			L.Shank.Lateral			L.Shank.Inferior			R.Shank.Superior			R.Shank.Lateral			R.Shank.Inferior			R.Heel			R.Midfoot.Lateral			R.Toe			L.Heel			L.Midfoot.Lateral			L.Midfoot.Superior			L.Toe			L.Elbow			L.Wrist			R.Elbow			R.Wrist			
		X1	Y1	Z1	X2	Y2	Z2	X3	Y3	Z3	X4	Y4	Z4	X5	Y5	Z5	X6	Y6	Z6	X7	Y7	Z7	X8	Y8	Z8	X9	Y9	Z9	X10	Y10	Z10	X11	Y11	Z11	X12	Y12	Z12	X13	Y13	Z13	X14	Y14	Z14	X15	Y15	Z15	X16	Y16	Z16	X17	Y17	Z17	X18	Y18	Z18	X19	Y19	Z19	X20	Y20	Z20	X21	Y21	Z21	X22	Y22	Z22	X23	Y23	Z23	X24	Y24	Z24	X25	Y25	Z25	X26	Y26	Z26	X27	Y27	Z27	X28	Y28	Z28	X29	Y29	Z29	X30	Y30	Z30	X31	Y31	Z31	X32	Y32	Z32	X33	Y33	Z33	

36	30.530000000000	744.391358486633	100.547629615411	574.080147087592	700.625176494506	1010.381145478451	486.267346273027	833.753228308407	1423.217018114018	242.204008244628	980.512323368606	1355.091456459370	366.232357517465	953.788177659128	1449.291442192443	544.911854424870	865.174616532899	1487.033435193603	393.345461159730	942.604880079913	932.678160326269	554.060105664025	876.429514151891	953.477446618813	289.476710749550	935.455469075029	716.338072181286	528.808249638210	844.150140471929	620.342316382972	604.500955352160	893.926942109699	555.515248674990	516.822687124414	874.911481496791	464.618772289537	529.481574046786	954.351236595275	763.313194734407	325.371541978428	885.184169067694	632.163795016256	264.453255459029	985.270004092246	570.756697927869	322.357784082254	996.105393677309	500.582106872639	328.135784625241	973.476016575700	424.846454740869	320.185133584177	889.351007802106	305.103790688008	270.730565862389	952.780807644172	197.046241889116	338.118486456484	821.369005734893	386.884006674843	544.432936507298	728.877732188631	308.330547962675	616.447643395612	740.164777078468	204.374229730315	556.971088577738	567.966610561552	63.909117683419	539.456150730801	650.193331033132	49.718094967336	613.815346621557	856.517573631444	38.528601927405	605.658468962011	835.408373746833	37.564693995343	380.677268512264	908.298585312553	34.167853935342	298.452318067721	989.863319448990	99.754487721252	322.882563986567	1118.705651094329	52.900830520995	294.019660860326	659.965338171258	1113.480748618203	185.357025388591	612.232318357497	858.453633101952	223.795460746280	1208.439712401090	1255.805767758115	623.264981248701	1347.426570966615	1409.881492434260	478.824530323455	
37	30.552285714286	741.674369174781	101.574268648570	574.069603089322	701.920846366572	1011.591153201167	481.792014288400	835.545591944003	1423.486759528027	237.777947524425	981.882801664670	1356.152579562755	362.695577959786	954.173779816228	1451.070940102332	540.967565429251	866.202592080430	1488.185915270115	388.787295633339	943.471707006221	933.676104593908	550.696269725782	878.466829559968	954.788207986276	285.812157448458	936.463863823563	717.281177692707	525.831930702430	845.124583782737	621.465232551272	601.689589471407	895.425582236464	556.206453195047	514.553854880854	876.355631265465	464.779338602815	527.871948399774	954.446668842618	762.771783699749	321.167410813819	883.325001664970	632.327427382332	261.356000594445	982.670345827635	570.051840377142	319.496762737103	992.720358705470	500.118246046061	325.683674946564	969.908766228050	424.583332364846	318.073522479015	885.328015426493	304.848950972646	269.361539176200	948.537078627135	196.987630187106	337.324728616883	821.751861103994	387.837869204400	542.941909682018	728.079099130650	310.707330903298	614.888661837770	738.405345859297	206.177307106343	556.255854004743	564.685178572936	68.179687344731	539.051518542657	646.607095103072	52.459210902914	613.501060635741	852.483733521259	37.859501989758	605.660908287222	831.091298771626	37.470545621438	380.588565938008	903.985266881915	34.084157833576	298.360205900472	985.359688455784	99.877802215955	322.669370133893	1114.310170627814	53.347611378789	293.975790977959	666.314303528565	1111.067048954952	177.445503744599	623.488333371194	854.793767414964	212.861246852260	1207.428333815754	1254.676437672496	620.432765114282	1348.592190861513	1406.793780683244	475.479202187200	
38	30.574571428571	739.084921670877	102.570615173599	574.031623024943	703.147822842974	1012.732531088836	477.446161097918	837.146935969827	1423.866475327880	233.700454337707	983.032325815766	1357.319815908836	359.514067658575	954.323326346106	1452.878513531969	537.441396250353	867.070373775199	1489.400047445856	384.620670929724	944.331874932260	934.708742116607	547.368672188787	880.443081421053	956.158048581523	282.195321599868	937.753241129859	718.335331501519	522.859341781984	846.491129503606	622.570042901553	598.850786923266	897.376906335428	556.958652219584	512.226775021729	878.336113489129	464.875317184374	526.240457078103	954.429943832036	762.202040125232	317.072948748695	881.325533072635	632.481943247107	258.417154128505	979.906972040150	569.307241860827	316.786255813670	989.159473630911	499.609416441453	323.361100479801	966.175851065858	424.328589825334	316.087742340757	881.167376666176	304.598953411557	268.120660324215	944.211726071747	196.933250643362	336.596357721457	822.578689603592	388.771148526181	541.426551891078	727.687627117425	313.142106385973	613.298886390457	736.926521957598	208.027942713995	555.519100255953	561.547673111939	72.686732316485	538.648092501015	643.116318272442	55.333269857016	613.199685030915	848.467873737005	37.261867312457	605.656696186414	826.722511842343	37.408452249612	380.539033967007	899.588694807180	34.024467449805	298.288459728210	980.818463304907	99.935740824176	322.459312658274	1109.837984515389	53.664245361754	293.864020672854	673.294204095055	1108.544762648222	169.465519153056	635.429449017682	851.124596750024	201.568409486390	1205.440767051264	1252.220292402822	618.312972773086	1349.917632475437	1401.679199739132	473.103016319786	
39	30.596857142857	736.617512487848	103.502822973764	573.988116798579	704.312185735501	1013.738314102045	473.177716365541	838.549606667280	1424.350603943163	229.984798731413	983.956282324749	1358.555190576041	356.685746048135	954.234226928151	1454.622002065798	534.353080844529	867.764398796870	1490.627076412406	380.884347574929	945.210452219397	935.724777448117	544.039010925210	882.397375535886	957.532385878614	278.590368239646	939.333118576333	719.441045480174	519.896562125590	848.242747408023	623.607537154848	595.986468611023	899.786616363410	557.714671697146	509.852961022083	880.849255022808	464.860194268879	524.603180050534	954.438267643618	761.631104109397	313.145172680838	879.437789874751	632.603200103866	255.639156197375	977.237872479023	568.540201258614	314.264909617793	985.715027854741	499.042678631216	321.209917601626	962.535271323712	424.047256695058	314.277721898421	877.095229204043	304.356715929021	267.014334381846	939.921399987926	196.850510693242	335.972240173736	823.850055885625	389.623989487427	539.898240150824	727.697732183785	315.590449416636	611.690687604463	735.736520881486	209.881063642124	554.777732898755	558.557117451940	77.373023731925	538.275335153975	639.720746682745	58.285948185456	612.930952301344	844.457613342650	36.767949700260	605.646486164703	822.303268330889	37.378968109040	380.531302309000	895.118533564716	33.993827005836	298.248097548165	976.268236484640	99.904678827046	322.289907900437	1105.312493087260	53.804424739390	293.721187176625	681.094763938047	1105.859637734606	161.494873036499	648.326913386477	847.395457592024	190.045756246354	1202.345440969872	1248.250830328814	616.829144217940	1351.369224013236	1394.097386952142	471.653556468653	
